<svg width="30" height="30" viewBox="0 0 30 30" fill="none" xmlns="http://www.w3.org/2000/svg">
<path d="M26.8857 4.35938L25.6435 3.11719C25.5967 3.07031 25.5381 3.0498 25.4765 3.0498C25.415 3.0498 25.3564 3.07324 25.3095 3.11719L23.08 5.34668C22.1108 4.69 20.9666 4.33988 19.7959 4.3418C18.2959 4.3418 16.7959 4.91309 15.6504 6.05859L12.665 9.04395C12.6214 9.088 12.5969 9.14748 12.5969 9.20947C12.5969 9.27146 12.6214 9.33095 12.665 9.375L20.625 17.335C20.6718 17.3818 20.7304 17.4023 20.792 17.4023C20.8506 17.4023 20.9121 17.3789 20.959 17.335L23.9443 14.3496C25.9629 12.3281 26.2002 9.20215 24.6562 6.92285L26.8857 4.69336C26.9765 4.59961 26.9765 4.4502 26.8857 4.35938ZM22.5322 12.9404L20.792 14.6807L15.3193 9.20801L17.0595 7.46777C17.789 6.73828 18.7617 6.33398 19.7959 6.33398C20.8301 6.33398 21.7998 6.73535 22.5322 7.46777C23.2617 8.19727 23.666 9.16992 23.666 10.2041C23.666 11.2383 23.2617 12.208 22.5322 12.9404ZM16.9599 16.0166C16.9159 15.973 16.8564 15.9485 16.7944 15.9485C16.7324 15.9485 16.6729 15.973 16.6289 16.0166L14.6777 17.9678L12.0322 15.3223L13.9863 13.3682C14.0771 13.2773 14.0771 13.1279 13.9863 13.0371L12.9199 11.9707C12.8758 11.9271 12.8164 11.9026 12.7544 11.9026C12.6924 11.9026 12.6329 11.9271 12.5888 11.9707L10.6347 13.9248L9.37497 12.665C9.3531 12.6432 9.32704 12.6259 9.29834 12.6143C9.26965 12.6027 9.23891 12.5971 9.20798 12.5977C9.14938 12.5977 9.08786 12.6211 9.04099 12.665L6.05856 15.6504C4.04001 17.6719 3.80271 20.7979 5.34665 23.0772L3.11716 25.3066C3.07354 25.3507 3.04907 25.4102 3.04907 25.4722C3.04907 25.5342 3.07354 25.5936 3.11716 25.6377L4.35935 26.8799C4.40622 26.9268 4.46481 26.9473 4.52634 26.9473C4.58786 26.9473 4.64646 26.9238 4.69333 26.8799L6.92282 24.6504C7.91013 25.3213 9.05857 25.6553 10.207 25.6553C11.707 25.6553 13.207 25.084 14.3525 23.9385L17.3379 20.9531C17.4287 20.8623 17.4287 20.7129 17.3379 20.6221L16.0781 19.3623L18.0322 17.4082C18.123 17.3174 18.123 17.168 18.0322 17.0771L16.9599 16.0166ZM12.9404 22.5322C12.5818 22.8926 12.1554 23.1784 11.6857 23.373C11.216 23.5676 10.7125 23.6672 10.2041 23.666C9.16989 23.666 8.20017 23.2646 7.46774 22.5322C7.10734 22.1737 6.82158 21.7472 6.62697 21.2775C6.43236 20.8079 6.33277 20.3043 6.33396 19.7959C6.33396 18.7617 6.73532 17.792 7.46774 17.0596L9.20798 15.3193L14.6806 20.792L12.9404 22.5322Z" fill="#888888"/>
</svg>
