<svg width="30" height="30" viewBox="0 0 30 30" fill="none" xmlns="http://www.w3.org/2000/svg">
<path fill-rule="evenodd" clip-rule="evenodd" d="M9.3427 6.29292C8.95218 6.68346 8.95218 7.31662 9.3427 7.70714L14.2924 12.6569C14.683 13.0474 15.3161 13.0474 15.7067 12.6569L20.6563 7.70714C21.0469 7.31662 21.0469 6.68346 20.6563 6.29292L15.7067 1.34319C15.3161 0.952662 14.683 0.952662 14.2924 1.34319L9.3427 6.29292ZM14.9995 10.5356L11.464 7.00004L14.9995 3.4645L18.5351 7.00004L14.9995 10.5356ZM17.3427 14.2929C16.9522 14.6835 16.9522 15.3166 17.3427 15.7071L22.2925 20.6568C22.6829 21.0474 23.3161 21.0474 23.7067 20.6568L28.6563 15.7071C29.0469 15.3166 29.0469 14.6835 28.6563 14.2929L23.7067 9.34318C23.3161 8.95266 22.6829 8.95266 22.2925 9.34318L17.3427 14.2929ZM22.9995 18.5356L19.464 15L22.9995 11.4645L26.5351 15L22.9995 18.5356ZM9.3427 23.7072C8.95218 23.3166 8.95218 22.6834 9.3427 22.2928L14.2924 17.3432C14.683 16.9527 15.3161 16.9527 15.7067 17.3432L20.6563 22.2928C21.0469 22.6834 21.0469 23.3166 20.6563 23.7072L15.7067 28.6568C15.3161 29.0474 14.683 29.0474 14.2924 28.6568L9.3427 23.7072ZM11.464 23L14.9995 26.5356L18.5351 23L14.9995 19.4645L11.464 23ZM1.3427 14.2932C0.952174 14.6837 0.952174 15.3169 1.3427 15.7074L6.29244 20.6572C6.68296 21.0476 7.31614 21.0476 7.70666 20.6572L12.6564 15.7074C13.0469 15.3169 13.0469 14.6837 12.6564 14.2932L7.70666 9.34348C7.31614 8.95296 6.68296 8.95296 6.29244 9.34348L1.3427 14.2932ZM6.99956 18.5359L3.46402 15.0003L6.99956 11.4648L10.5351 15.0003L6.99956 18.5359Z" fill="#888888"/>
</svg>
