<svg width="22" height="24" viewBox="0 0 22 24" fill="none" xmlns="http://www.w3.org/2000/svg">
<path d="M20.35 2.675C17.4165 1.30519 14.2357 0.544037 11 0.4375C7.76417 0.544037 4.5835 1.30519 1.64998 2.675C1.27332 2.85197 0.955335 3.1333 0.733772 3.48559C0.51221 3.83789 0.39636 4.24635 0.399985 4.6625V19.3375C0.39636 19.7536 0.51221 20.1621 0.733772 20.5144C0.955335 20.8667 1.27332 21.148 1.64998 21.325C4.5835 22.6949 7.76417 23.456 11 23.5625C14.2357 23.456 17.4165 22.6949 20.35 21.325C20.7266 21.148 21.0446 20.8667 21.2662 20.5144C21.4877 20.1621 21.6036 19.7536 21.6 19.3375V4.6625C21.6036 4.24635 21.4877 3.83789 21.2662 3.48559C21.0446 3.1333 20.7266 2.85197 20.35 2.675ZM19.75 12.675C17.011 13.9822 14.033 14.714 11 14.825C7.96702 14.714 4.98902 13.9822 2.24998 12.675V7.85C5.01207 9.06455 7.98377 9.731 11 9.8125C14.0162 9.731 16.9879 9.06455 19.75 7.85V12.675ZM2.43748 4.375C5.123 3.11606 8.03578 2.41444 11 2.3125C13.9679 2.41654 16.8844 3.11802 19.575 4.375C19.6276 4.40239 19.6717 4.44365 19.7026 4.49434C19.7335 4.54501 19.7499 4.60317 19.75 4.6625V5.75C17.011 7.05725 14.033 7.78899 11 7.9C7.96702 7.78899 4.98902 7.05725 2.24998 5.75V4.625C2.25655 4.57054 2.27734 4.51876 2.31025 4.47487C2.34316 4.431 2.38705 4.39655 2.43748 4.375ZM19.5625 19.625C16.877 20.8839 13.9642 21.5855 11 21.6875C8.03207 21.5835 5.1156 20.882 2.42498 19.625C2.37236 19.5976 2.32822 19.5564 2.29737 19.5056C2.26652 19.455 2.25013 19.3969 2.24998 19.3375V14.725C5.01207 15.9395 7.98377 16.606 11 16.6875C14.0162 16.606 16.9879 15.9395 19.75 14.725V19.3375C19.7502 19.3985 19.7326 19.4582 19.6992 19.5092C19.6659 19.5604 19.6184 19.6006 19.5625 19.625Z" fill="#888888"/>
</svg>
