<svg width="30" height="30" viewBox="0 0 30 30" fill="none" xmlns="http://www.w3.org/2000/svg">
<g clip-path="url(#clip0_39_279)">
<path d="M5.2183 8.86378L13.5039 4.03052L12.4961 2.30296L4.21056 7.13622L5.2183 8.86378ZM4 19V11H2V19H4ZM16.4961 4.03052L24.7818 8.86378L25.7894 7.13622L17.5039 2.30296L16.4961 4.03052ZM26 11V19H28V11H26ZM25.4962 20.7196L16.4961 25.9696L17.5039 27.6972L26.5038 22.4472L25.4962 20.7196ZM13.5039 25.9696L5.2183 21.1364L4.21056 22.864L12.4961 27.6972L13.5039 25.9696ZM13.1679 3.9453L3.16794 18.9453L4.83206 20.0548L14.8321 5.0547L13.1679 3.9453ZM26.832 18.9453L16.8321 3.9453L15.1679 5.0547L25.168 20.0548L26.832 18.9453ZM5 22H25V20H5V22ZM15 4C14.4477 4 14 3.55228 14 3H12C12 4.65686 13.3431 6 15 6V4ZM16 3C16 3.55228 15.5523 4 15 4V6C16.6569 6 18 4.65686 18 3H16ZM15 2C15.5523 2 16 2.44772 16 3H18C18 1.34315 16.6569 0 15 0V2ZM15 0C13.3431 0 12 1.34315 12 3H14C14 2.44772 14.4477 2 15 2V0ZM27 10C26.4478 10 26 9.55228 26 9H24C24 10.6569 25.3432 12 27 12V10ZM28 9C28 9.55228 27.5522 10 27 10V12C28.6568 12 30 10.6569 30 9H28ZM27 8C27.5522 8 28 8.44772 28 9H30C30 7.34314 28.6568 6 27 6V8ZM27 6C25.3432 6 24 7.34314 24 9H26C26 8.44772 26.4478 8 27 8V6ZM27 22C26.4478 22 26 21.5522 26 21H24C24 22.6568 25.3432 24 27 24V22ZM28 21C28 21.5522 27.5522 22 27 22V24C28.6568 24 30 22.6568 30 21H28ZM27 20C27.5522 20 28 20.4478 28 21H30C30 19.3431 28.6568 18 27 18V20ZM27 18C25.3432 18 24 19.3431 24 21H26C26 20.4478 26.4478 20 27 20V18ZM15 28C14.4477 28 14 27.5522 14 27H12C12 28.6568 13.3431 30 15 30V28ZM16 27C16 27.5522 15.5523 28 15 28V30C16.6569 30 18 28.6568 18 27H16ZM15 26C15.5523 26 16 26.4478 16 27H18C18 25.3432 16.6569 24 15 24V26ZM15 24C13.3431 24 12 25.3432 12 27H14C14 26.4478 14.4477 26 15 26V24ZM3 22C2.44772 22 2 21.5522 2 21H0C0 22.6568 1.34315 24 3 24V22ZM4 21C4 21.5522 3.55228 22 3 22V24C4.65686 24 6 22.6568 6 21H4ZM3 20C3.55228 20 4 20.4478 4 21H6C6 19.3431 4.65686 18 3 18V20ZM3 18C1.34315 18 0 19.3431 0 21H2C2 20.4478 2.44772 20 3 20V18ZM3 10C2.44772 10 2 9.55228 2 9H0C0 10.6569 1.34315 12 3 12V10ZM4 9C4 9.55228 3.55228 10 3 10V12C4.65686 12 6 10.6569 6 9H4ZM3 8C3.55228 8 4 8.44772 4 9H6C6 7.34314 4.65686 6 3 6V8ZM3 6C1.34315 6 0 7.34314 0 9H2C2 8.44772 2.44772 8 3 8V6Z" fill="#888888"/>
</g>
<defs>
<clipPath id="clip0_39_279">
<rect width="30" height="30" fill="white"/>
</clipPath>
</defs>
</svg>
