<svg width="30" height="30" viewBox="0 0 30 30" fill="none" xmlns="http://www.w3.org/2000/svg">
<path d="M25.3125 3.75H4.6875C3.09375 3.75 1.875 4.96875 1.875 6.5625V23.4375C1.875 25.0312 3.09375 26.25 4.6875 26.25H25.3125C26.9062 26.25 28.125 25.0312 28.125 23.4375V6.5625C28.125 4.96875 26.9062 3.75 25.3125 3.75ZM11.3438 7.125C11.4375 7.03125 11.4375 6.9375 11.5312 6.84375C11.9062 6.46875 12.4688 6.46875 12.8438 6.84375C12.9375 6.9375 13.0312 7.03125 13.0312 7.125C13.125 7.21875 13.125 7.40625 13.125 7.5C13.125 7.59375 13.125 7.78125 13.0312 7.875C12.9375 7.96875 12.9375 8.0625 12.8438 8.15625C12.6562 8.34375 12.4688 8.4375 12.1875 8.4375C12.0938 8.4375 11.9062 8.4375 11.8125 8.34375C11.7188 8.25 11.625 8.25 11.5312 8.15625C11.4375 8.0625 11.3438 7.96875 11.3438 7.875C11.25 7.78125 11.25 7.59375 11.25 7.5C11.25 7.40625 11.25 7.21875 11.3438 7.125ZM8.53125 7.125C8.625 7.03125 8.625 6.9375 8.71875 6.84375C8.8125 6.75 8.90625 6.65625 9 6.65625C9.375 6.46875 9.75 6.5625 10.0312 6.84375C10.125 6.9375 10.2188 7.03125 10.2188 7.125C10.3125 7.21875 10.3125 7.40625 10.3125 7.5C10.3125 7.78125 10.2188 7.96875 10.0312 8.15625C9.84375 8.34375 9.65625 8.4375 9.375 8.4375C9.09375 8.4375 8.90625 8.34375 8.71875 8.15625C8.53125 7.96875 8.4375 7.78125 8.4375 7.5C8.4375 7.40625 8.4375 7.21875 8.53125 7.125ZM5.90625 6.84375L6 6.75C6.09375 6.75 6.09375 6.65625 6.1875 6.65625C6.28125 6.5625 6.28125 6.5625 6.375 6.5625C6.46875 6.5625 6.65625 6.5625 6.75 6.5625C6.84375 6.5625 6.84375 6.5625 6.9375 6.65625C7.03125 6.65625 7.03125 6.75 7.125 6.75L7.21875 6.84375C7.3125 6.9375 7.40625 7.03125 7.40625 7.125C7.5 7.21875 7.5 7.40625 7.5 7.5C7.5 7.59375 7.5 7.78125 7.40625 7.875C7.40625 7.96875 7.3125 8.0625 7.21875 8.15625C7.03125 8.34375 6.84375 8.4375 6.5625 8.4375C6.28125 8.4375 6.09375 8.34375 5.90625 8.15625C5.71875 7.96875 5.625 7.78125 5.625 7.5C5.625 7.21875 5.71875 7.03125 5.90625 6.84375ZM16.875 24.375H4.6875C4.125 24.375 3.75 24 3.75 23.4375V18.75H16.875V24.375ZM16.875 16.875H3.75V11.25H16.875V16.875ZM26.25 23.4375C26.25 24 25.875 24.375 25.3125 24.375H18.75V11.25H26.25V23.4375Z" fill="#888888"/>
</svg>
