<svg width="30" height="30" viewBox="0 0 30 30" fill="none" xmlns="http://www.w3.org/2000/svg">
<path d="M5.41261 10.0001C5.23724 9.99813 5.06425 9.95926 4.90488 9.88604C4.74552 9.81282 4.60335 9.70688 4.48761 9.57511L2.81261 7.70011C2.61057 7.44927 2.51315 7.13013 2.54067 6.80922C2.56819 6.48831 2.71852 6.1904 2.96032 5.97762C3.20211 5.76484 3.51671 5.65361 3.83851 5.66712C4.16032 5.68062 4.46449 5.81782 4.68761 6.05011L5.41261 6.87511L7.81261 4.17511C8.03572 3.94282 8.33989 3.80562 8.6617 3.79212C8.9835 3.77861 9.2981 3.88984 9.5399 4.10262C9.78169 4.3154 9.93202 4.61331 9.95954 4.93422C9.98706 5.25513 9.88964 5.57427 9.68761 5.82511L6.35011 9.57511C6.23297 9.70845 6.08878 9.81531 5.92713 9.88859C5.76549 9.96187 5.59009 9.99989 5.41261 10.0001ZM6.35011 17.0751L9.68761 13.3251C9.88964 13.0743 9.98706 12.7551 9.95954 12.4342C9.93202 12.1133 9.78169 11.8154 9.5399 11.6026C9.2981 11.3898 8.9835 11.2786 8.6617 11.2921C8.33989 11.3056 8.03572 11.4428 7.81261 11.6751L5.41261 14.3751L4.68761 13.5501C4.58176 13.4187 4.4504 13.3101 4.30145 13.2308C4.1525 13.1515 3.98903 13.1032 3.82091 13.0888C3.65279 13.0744 3.48349 13.0941 3.32321 13.1469C3.16294 13.1997 3.015 13.2843 2.88833 13.3958C2.76165 13.5073 2.65886 13.6433 2.58614 13.7955C2.51342 13.9478 2.47229 14.1132 2.46521 14.2818C2.45814 14.4504 2.48527 14.6187 2.54497 14.7765C2.60468 14.9343 2.69572 15.0784 2.81261 15.2001L4.48761 17.0751C4.60335 17.2069 4.74552 17.3128 4.90488 17.386C5.06425 17.4593 5.23724 17.4981 5.41261 17.5001C5.59009 17.4999 5.76549 17.4619 5.92713 17.3886C6.08878 17.3153 6.23297 17.2084 6.35011 17.0751ZM6.35011 24.5751L9.68761 20.8251C9.88964 20.5743 9.98706 20.2551 9.95954 19.9342C9.93202 19.6133 9.78169 19.3154 9.5399 19.1026C9.2981 18.8898 8.9835 18.7786 8.6617 18.7921C8.33989 18.8056 8.03572 18.9428 7.81261 19.1751L5.41261 21.8751L4.68761 21.0501C4.58176 20.9187 4.4504 20.8101 4.30145 20.7308C4.1525 20.6515 3.98903 20.6032 3.82091 20.5888C3.65279 20.5744 3.48349 20.5941 3.32321 20.6469C3.16294 20.6997 3.015 20.7843 2.88833 20.8958C2.76165 21.0073 2.65886 21.1433 2.58614 21.2955C2.51342 21.4478 2.47229 21.6132 2.46521 21.7818C2.45814 21.9504 2.48527 22.1187 2.54497 22.2765C2.60468 22.4343 2.69572 22.5784 2.81261 22.7001L4.48761 24.5751C4.60335 24.7069 4.74552 24.8128 4.90488 24.886C5.06425 24.9593 5.23724 24.9981 5.41261 25.0001C5.59009 24.9999 5.76549 24.9619 5.92713 24.8886C6.08878 24.8153 6.23297 24.7084 6.35011 24.5751Z" fill="#888888"/>
<path d="M26.25 23.75H13.75C13.4185 23.75 13.1005 23.6183 12.8661 23.3839C12.6317 23.1495 12.5 22.8315 12.5 22.5C12.5 22.1685 12.6317 21.8505 12.8661 21.6161C13.1005 21.3817 13.4185 21.25 13.75 21.25H26.25C26.5815 21.25 26.8995 21.3817 27.1339 21.6161C27.3683 21.8505 27.5 22.1685 27.5 22.5C27.5 22.8315 27.3683 23.1495 27.1339 23.3839C26.8995 23.6183 26.5815 23.75 26.25 23.75ZM26.25 16.25H13.75C13.4185 16.25 13.1005 16.1183 12.8661 15.8839C12.6317 15.6495 12.5 15.3315 12.5 15C12.5 14.6685 12.6317 14.3505 12.8661 14.1161C13.1005 13.8817 13.4185 13.75 13.75 13.75H26.25C26.5815 13.75 26.8995 13.8817 27.1339 14.1161C27.3683 14.3505 27.5 14.6685 27.5 15C27.5 15.3315 27.3683 15.6495 27.1339 15.8839C26.8995 16.1183 26.5815 16.25 26.25 16.25ZM26.25 8.75H13.75C13.4185 8.75 13.1005 8.6183 12.8661 8.38388C12.6317 8.14946 12.5 7.83152 12.5 7.5C12.5 7.16848 12.6317 6.85054 12.8661 6.61612C13.1005 6.3817 13.4185 6.25 13.75 6.25H26.25C26.5815 6.25 26.8995 6.3817 27.1339 6.61612C27.3683 6.85054 27.5 7.16848 27.5 7.5C27.5 7.83152 27.3683 8.14946 27.1339 8.38388C26.8995 8.6183 26.5815 8.75 26.25 8.75Z" fill="#888888"/>
</svg>
