<svg width="30" height="30" viewBox="0 0 30 30" fill="none" xmlns="http://www.w3.org/2000/svg">
<path d="M21.6569 29.9197C21.5213 29.9189 19.7563 29.9156 17.7799 29.9123C16.7362 29.9106 15.7646 29.8924 15.0008 29.8627C14.6188 29.8478 14.2895 29.8301 14.0221 29.8094C13.7547 29.7886 13.5941 29.7831 13.3467 29.7187C13.0494 29.6412 12.7928 29.6559 12.415 29.2879C12.2261 29.1039 12.1065 28.8162 12.075 28.626C12.0436 28.4359 12.0532 28.3168 12.0572 28.2048C12.0712 27.8118 12.1827 27.5872 12.3115 27.3116C12.4402 27.0361 12.6061 26.7502 12.8023 26.4635C13.0696 26.0729 13.181 25.8189 13.2143 25.6687C13.2475 25.5184 13.2456 25.4379 13.1608 25.2036C13.0835 24.9899 12.9839 24.8695 12.7285 24.737C12.4731 24.6046 12.0442 24.4958 11.4419 24.483C10.6247 24.4657 10.0611 24.5763 9.75121 24.7222C9.44135 24.8682 9.34805 24.9832 9.26181 25.273C9.15584 25.6292 9.16333 25.7874 9.22328 25.9678C9.28324 26.1482 9.44689 26.4092 9.83149 26.784C10.2006 27.1437 10.4095 27.6742 10.4497 28.1749C10.47 28.429 10.5624 28.7083 10.2972 29.1632C10.1645 29.3907 9.93951 29.5556 9.78036 29.6321C9.62122 29.7086 9.50825 29.7356 9.40053 29.7641C9.05766 29.8547 8.99729 29.823 8.73769 29.8359C8.47809 29.8488 8.14806 29.8593 7.76664 29.8679C7.00381 29.8853 6.03847 29.8951 5.08158 29.8971C4.1247 29.899 3.17801 29.8932 2.45131 29.8789C2.08797 29.8718 1.78111 29.8627 1.54545 29.8505C1.42763 29.8444 1.32936 29.838 1.23593 29.8281C1.18922 29.8232 1.14534 29.8181 1.08359 29.8064C1.02184 29.7947 0.999089 29.8629 0.684271 29.6424C0.441437 29.4723 0.408467 29.3491 0.372113 29.2737C0.335759 29.1982 0.322603 29.153 0.311468 29.1152C0.2892 29.0395 0.281901 28.9951 0.274262 28.9501C0.258982 28.8601 0.249899 28.7776 0.240424 28.6789C0.221471 28.4815 0.204735 28.2299 0.188275 27.927C0.155354 27.3213 0.125174 26.5184 0.101556 25.6657C0.054322 23.9604 0.0306213 22.0948 0.0747498 21.1807C0.0892652 20.88 0.121515 20.5916 0.167914 20.3365C0.191114 20.2089 0.216851 20.091 0.254339 19.9685C0.291827 19.846 0.284882 19.7394 0.508929 19.4821C0.727571 19.231 1.07198 19.0723 1.36806 19.0413C1.66414 19.0103 1.91481 19.0674 2.14296 19.1484C2.59927 19.3104 3.00255 19.5862 3.44741 19.9586C4.2046 20.5924 4.38413 20.6281 4.9058 20.4907C5.48015 20.3395 5.99914 19.756 6.23544 18.9392C6.47175 18.1224 6.3786 17.1719 5.93383 16.5182C5.70391 16.1803 5.27682 15.8368 4.87036 15.6509C4.50933 15.4858 4.2269 15.4928 4.16064 15.4955C4.10661 15.5325 4.02451 15.5868 3.95424 15.6534C3.79736 15.8021 3.60202 16.0073 3.42895 16.2105C2.86859 16.8682 2.46628 17.404 1.57241 17.4531C1.12547 17.4776 0.618319 17.1872 0.39101 16.8585C0.1637 16.5298 0.085045 16.2027 0.0293395 15.8441C-0.00997474 15.591 0.00179801 15.4684 0.00121451 15.2059C0.000614506 14.9434 0.00497951 14.6125 0.0130803 14.2328C0.0292743 13.4734 0.060445 12.5212 0.0981872 11.5813C0.135929 10.6413 0.180176 9.71503 0.222992 9.00578C0.2444 8.65116 0.265198 8.35211 0.285834 8.12351C0.296151 8.00921 0.3059 7.91424 0.3185 7.82483C0.3248 7.78012 0.331141 7.73833 0.343988 7.6801C0.356835 7.62187 0.288272 7.60755 0.509808 7.29968C0.711063 7.02 0.840254 7.00981 0.915716 6.97829C0.991179 6.94678 1.03297 6.93707 1.06806 6.92849C1.13824 6.91132 1.17728 6.90652 1.21718 6.90124C1.29699 6.89069 1.36913 6.88503 1.4561 6.87927C1.63004 6.86775 1.85275 6.85873 2.12304 6.85129C2.66361 6.83642 3.38771 6.82858 4.17734 6.83064C6.08421 6.8356 7.22673 6.81886 7.91562 6.75974C8.60451 6.70062 8.76187 6.63606 8.98964 6.50368C9.3954 6.26787 9.40829 6.18093 9.41576 6.04944C9.42324 5.91794 9.32281 5.5271 8.88124 4.94553C8.61378 4.59326 8.42104 4.32803 8.27465 4.00598C8.12827 3.68392 8.07126 3.34072 8.05068 3.02864C8.13438 1.99984 8.37859 1.23341 9.18271 0.709792C9.48111 0.51543 9.68515 0.468403 9.96684 0.38489C10.2485 0.301377 10.5626 0.227218 10.8755 0.174538H10.8756C12.7047 -0.133269 14.4535 0.300837 15.2532 1.68802C15.5066 2.12762 15.6297 2.70715 15.5208 3.23709C15.4119 3.76701 15.1448 4.21854 14.7857 4.70676C14.2295 5.4631 14.096 6.21795 14.0794 6.11843V6.11858C14.094 6.20703 14.1013 6.25029 14.2925 6.37845C14.4839 6.50667 14.8663 6.66054 15.4282 6.76135C15.2886 6.73631 15.5022 6.76612 15.6989 6.77498C15.8957 6.78383 16.1649 6.79306 16.4792 6.80193C17.1078 6.81968 17.9184 6.83627 18.7275 6.84881C19.5365 6.86135 20.3451 6.86984 20.9696 6.87151C21.2818 6.87234 21.5486 6.87152 21.742 6.86873C21.9354 6.86594 22.1688 6.83603 21.9881 6.8655C22.3578 6.8052 22.7367 7.03574 22.868 7.18894C22.9993 7.34214 23.028 7.43895 23.0551 7.51399C23.1092 7.66405 23.1182 7.74786 23.1317 7.8446C23.1587 8.03808 23.1716 8.25234 23.1825 8.54172C23.2044 9.12048 23.2098 9.97592 23.2023 11.1771C23.1897 13.1998 23.2685 14.4722 23.431 15.1345C23.5934 15.7969 23.612 15.7556 23.9189 15.8538C24.0952 15.9102 24.0673 15.913 24.2356 15.8557C24.4039 15.7984 24.7509 15.6092 25.2912 15.2315C25.8315 14.8538 26.3083 14.5728 26.8903 14.4883C27.4724 14.4037 28.0494 14.597 28.514 14.8741C29.434 15.4229 29.8259 16.4911 29.9621 17.8269C30.0997 19.1765 29.8722 20.4509 29.1156 21.3702C28.7471 21.818 28.1374 22.1571 27.5316 22.2559C27.2074 22.3088 26.7715 22.3503 26.3598 22.1999C25.9481 22.0496 25.6609 21.8343 25.1381 21.4795C24.5414 21.0745 24.1617 20.9121 24.031 20.889C23.9002 20.866 23.9561 20.8401 23.7364 21.0084C23.4728 21.2103 23.4203 21.2297 23.2994 21.9789C23.1785 22.7281 23.1295 24.0852 23.1185 26.373C23.1152 27.051 23.0997 27.6772 23.0763 28.1539C23.0646 28.3923 23.0515 28.5912 23.0344 28.756C23.0259 28.8384 23.0176 28.9096 23.0012 28.9953C22.993 29.0382 22.9843 29.0831 22.9602 29.1569C22.936 29.2307 22.9733 29.3339 22.673 29.5948C22.3965 29.835 22.2639 29.8306 22.1151 29.8663C21.9662 29.9021 21.8226 29.9205 21.6569 29.9197ZM21.6358 28.0485C21.6374 28.0485 21.6647 28.0485 21.6661 28.0485C21.6579 28.0484 21.6826 28.0458 21.678 28.0469C21.6756 28.0477 21.6686 28.0366 21.6358 28.0485ZM21.2076 28.0476C21.2287 27.6117 21.2442 27.0128 21.2473 26.3639C21.2584 24.0574 21.2913 22.6774 21.4521 21.6809C21.6128 20.6845 22.0416 19.9495 22.5985 19.5229C23.0562 19.1723 23.7252 18.9352 24.3556 19.0463C24.986 19.1573 25.5154 19.4742 26.1888 19.9312C26.9735 20.4967 27.3176 20.6186 27.6708 20.1812C27.9609 19.8287 28.2017 19.0086 28.1006 18.0168C27.9886 16.9192 27.7677 16.6078 27.5554 16.4812C27.2826 16.3185 27.2499 16.327 27.1594 16.3401C27.069 16.3533 26.8107 16.4525 26.3633 16.7652C25.7739 17.1772 25.331 17.4595 24.8384 17.6271C24.3457 17.7948 23.786 17.776 23.3486 17.6361C22.5397 17.3773 21.862 16.5934 21.6135 15.5803C21.3651 14.5673 21.3182 13.2314 21.3311 11.1654C21.3381 10.0359 21.3309 9.26543 21.3135 8.74138C21.1935 8.74168 21.1027 8.74307 20.9644 8.7427C20.3274 8.741 19.5137 8.73249 18.6985 8.71985C17.8832 8.70721 17.0674 8.69049 16.4264 8.67239C16.1059 8.66334 15.8297 8.65393 15.6148 8.64427C15.4 8.6346 15.336 8.646 15.0977 8.60325C14.3755 8.47365 13.7627 8.27589 13.2509 7.93294C12.7391 7.58998 12.3351 7.04244 12.233 6.42268C12.0599 5.37208 12.5791 4.5489 13.2783 3.59817C13.5585 3.21708 13.6666 2.96445 13.688 2.86034C13.7094 2.75623 13.7181 2.77194 13.632 2.62259C13.3558 2.14338 12.5608 1.78854 11.1863 2.01981H11.1862C10.9586 2.05813 10.7017 2.11867 10.4986 2.17889C10.2954 2.23913 10.1008 2.34496 10.204 2.27777C9.81989 2.58083 9.80062 2.83863 9.97811 3.23167C10.016 3.31498 10.1267 3.49137 10.3716 3.81394C10.9489 4.57427 11.3315 5.32073 11.284 6.15564C11.2366 6.99055 10.6567 7.69922 9.92992 8.12161C9.4749 8.38605 8.9023 8.55326 8.07572 8.6242C7.24915 8.69513 6.09058 8.70683 4.1725 8.70183C3.39858 8.69982 2.68718 8.7078 2.17445 8.7219C2.15045 8.72258 2.14193 8.72356 2.11879 8.72424C2.10932 8.85884 2.10073 8.95434 2.09081 9.11858C2.04924 9.80727 2.00527 10.7259 1.96791 11.6564C1.93055 12.587 1.89964 13.5311 1.88383 14.2726C1.87655 14.6142 1.87346 14.8976 1.87328 15.1284C1.91798 15.0829 1.95784 15.0518 2.00453 14.997C2.22273 14.7409 2.45312 14.4982 2.66679 14.2956C2.88045 14.093 2.94728 13.9572 3.36815 13.7755C4.16406 13.4318 4.94393 13.6269 5.64862 13.9492C6.35332 14.2715 7.01323 14.7781 7.481 15.4656C8.3036 16.6746 8.40636 18.1685 8.03295 19.4592C7.65954 20.7499 6.7632 21.9367 5.38231 22.3003C4.32922 22.5775 3.22215 22.2103 2.24623 21.3934C2.13622 21.3013 2.04794 21.2442 1.95385 21.1783C1.95151 21.2123 1.94538 21.237 1.94374 21.2709C1.90771 22.0172 1.92557 23.9317 1.97216 25.6139C1.99545 26.455 2.02528 27.2477 2.05668 27.8254C2.06063 27.898 2.0644 27.9296 2.0684 27.9951C2.21026 27.9996 2.31346 28.0047 2.48822 28.0082C3.19275 28.022 4.1311 28.0279 5.07777 28.0259C6.02445 28.024 6.9812 28.0141 7.72401 27.9972C7.98994 27.9911 8.18431 27.9834 8.38319 27.9757C7.95769 27.5384 7.62435 27.0899 7.4476 26.558C7.25089 25.966 7.29253 25.33 7.46825 24.7394C7.68896 23.9976 8.24278 23.3643 8.9539 23.0293C9.66501 22.6944 10.4963 22.5914 11.4815 22.6123C12.2771 22.6291 12.9828 22.7611 13.59 23.076C14.1972 23.391 14.6881 23.9246 14.9205 24.5671C15.0882 25.0308 15.1539 25.5642 15.0413 26.073C14.9287 26.5818 14.6808 27.0318 14.3466 27.5202C14.2437 27.6705 14.1747 27.8044 14.1037 27.9371C14.1417 27.9412 14.1254 27.9404 14.1673 27.9437C14.3968 27.9616 14.7078 27.9786 15.0737 27.9928C15.8055 28.0213 16.7593 28.0395 17.7829 28.0411C19.5262 28.044 20.743 28.0463 21.2076 28.0476ZM1.51176 27.9727C1.46538 27.96 1.44821 27.967 1.43705 27.9676C1.44951 27.9689 1.48921 27.971 1.51176 27.9727ZM2.03588 20.5508C2.05261 20.5151 2.04663 20.5065 2.04365 20.5162C2.04245 20.5201 2.03795 20.5429 2.03588 20.5508ZM2.16362 8.15984C2.17817 8.11303 2.17109 8.09642 2.17153 8.08586C2.16984 8.09782 2.16613 8.13796 2.16362 8.15984Z" fill="#888888"/>
</svg>
