<svg width="30" height="30" viewBox="0 0 30 30" fill="none" xmlns="http://www.w3.org/2000/svg">
<g clip-path="url(#clip0_39_237)">
<path fill-rule="evenodd" clip-rule="evenodd" d="M22.5 20C24.5711 20 26.25 21.6789 26.25 23.75C26.25 25.8211 24.5711 27.5 22.5 27.5C20.4289 27.5 18.75 25.8211 18.75 23.75C18.75 21.6789 20.4289 20 22.5 20ZM19.375 5C22.4816 5 25 7.5184 25 10.625C25 13.7316 22.4816 16.25 19.375 16.25H10.625C8.89911 16.25 7.5 17.6491 7.5 19.375C7.5 21.1009 8.89911 22.5 10.625 22.5H16.25C16.9404 22.5 17.5 23.0596 17.5 23.75C17.5 24.4404 16.9404 25 16.25 25H10.625C7.5184 25 5 22.4816 5 19.375C5 16.2684 7.5184 13.75 10.625 13.75H19.375C21.1009 13.75 22.5 12.3509 22.5 10.625C22.5 8.89911 21.1009 7.5 19.375 7.5H13.75C13.0596 7.5 12.5 6.94035 12.5 6.25C12.5 5.55965 13.0596 5 13.75 5H19.375ZM22.5 22.5C21.8096 22.5 21.25 23.0596 21.25 23.75C21.25 24.4404 21.8096 25 22.5 25C23.1904 25 23.75 24.4404 23.75 23.75C23.75 23.0596 23.1904 22.5 22.5 22.5ZM7.5 2.5C9.57106 2.5 11.25 4.17894 11.25 6.25C11.25 8.32106 9.57106 10 7.5 10C5.42894 10 3.75 8.32106 3.75 6.25C3.75 4.17894 5.42894 2.5 7.5 2.5ZM7.5 5C6.80965 5 6.25 5.55965 6.25 6.25C6.25 6.94035 6.80965 7.5 7.5 7.5C8.19035 7.5 8.75 6.94035 8.75 6.25C8.75 5.55965 8.19035 5 7.5 5Z" fill="#888888"/>
</g>
<defs>
<clipPath id="clip0_39_237">
<rect width="30" height="30" fill="white"/>
</clipPath>
</defs>
</svg>
