<svg width="30" height="30" viewBox="0 0 30 30" fill="none" xmlns="http://www.w3.org/2000/svg">
<g clip-path="url(#clip0_39_1116)">
<path d="M21.1549 21.3228C21.2397 21.3281 21.331 21.3387 21.4224 21.3387C22.7163 21.34 24.0115 21.332 25.3053 21.3453C25.5887 21.3479 25.6735 21.2513 25.6589 20.9798C25.6404 20.6262 25.6549 20.2713 25.6549 19.8342C27.1236 20.9149 28.5433 21.9584 30 23.0311C28.5539 24.0959 27.1342 25.1408 25.6549 26.2307C25.6549 25.8188 25.6549 25.4785 25.6549 25.1381C25.6549 24.6984 25.6549 24.6971 25.2272 24.6971C16.9542 24.6971 8.67988 24.6971 0.406896 24.6971C0.0069536 24.6971 0.00695354 24.6971 0.00695354 24.2945C0.00695354 23.4218 0.0188728 22.5491 0.000332454 21.6777C-0.00628911 21.3943 0.0850879 21.3307 0.356572 21.332C4.80494 21.34 9.25331 21.3466 13.7017 21.3347C15.9821 21.3281 17.7819 20.3838 18.9724 18.4186C21.1205 14.8694 18.8811 10.2211 14.7651 9.62246C11.5867 9.16028 8.63221 11.2937 8.09321 14.5264C8.03627 14.8628 8.03229 15.2084 7.99918 15.6137C8.51964 15.5435 8.99109 15.4786 9.52479 15.4071C8.68915 17.0227 7.88264 18.5828 7.06422 20.164C5.81009 18.8715 4.57451 17.5988 3.36674 16.3539C3.67 16.3036 4.0726 16.2454 4.47121 16.1619C4.5467 16.146 4.65794 16.0242 4.65529 15.954C4.63278 15.1078 4.69105 14.2708 4.85659 13.4405C4.86189 13.4153 4.84997 13.3862 4.84202 13.3372C4.03419 13.1994 3.28463 12.9081 2.60526 12.4393C0.944568 11.2898 0.075818 9.15101 0.483706 7.20162C0.927351 5.07742 2.52977 3.48957 4.601 3.09757C5.94385 2.84463 7.1887 3.08565 8.34483 3.79548C8.54877 3.92129 8.67326 3.93983 8.80702 3.72132C8.88515 3.59286 9.00301 3.48957 9.13809 3.3333C9.30628 4.01135 9.46387 4.64569 9.62014 5.28004C9.67312 5.49325 9.71417 5.71044 9.77641 5.92101C9.84395 6.14879 9.77509 6.25076 9.53406 6.23487C8.83747 6.18719 8.13956 6.14481 7.44297 6.09846C7.27081 6.08654 7.09998 6.068 6.87882 6.04682C7.05098 5.82963 7.20725 5.63495 7.37808 5.42174C7.00198 5.13569 6.58747 4.99266 6.15574 4.92247C4.06862 4.5808 2.22915 6.18454 2.27153 8.29682C2.30331 9.91778 3.67 11.3666 5.28434 11.5043C5.49358 11.5215 5.56642 11.4156 5.6472 11.2593C6.79141 9.0636 8.51434 7.51151 10.8584 6.70368C16.2814 4.83374 21.9429 8.18426 22.9878 13.6682C23.5029 16.3685 22.9163 18.8344 21.2781 21.0447C21.233 21.1056 21.192 21.1705 21.1523 21.2354C21.1443 21.2473 21.1549 21.2711 21.1615 21.3214L21.1549 21.3228Z" fill="#888888"/>
</g>
<defs>
<clipPath id="clip0_39_1116">
<rect width="30" height="30" fill="white"/>
</clipPath>
</defs>
</svg>
